<?xml version="1.0" encoding="utf-8"?><svg version="1.1" viewBox="89.6 96.1 338.8 338.8" xmlns="http://www.w3.org/2000/svg"> <path d="M134.761,434.88 c-24.967,0-45.207-20.24-45.207-45.207c0-24.967,20.24-45.207,45.207-45.207c24.967,0,45.207,20.24,45.207,45.207 C179.968,414.64,159.728,434.88,134.761,434.88Z M300.069 417.545 C300.069 427.119 292.307 434.88 282.734 434.88 L245.987 434.88 C236.413 434.88 228.653 427.12 228.653 417.545 L228.653 399.171 C228.653 342.161 182.272 295.781 125.262 295.781 L106.888 295.781 C97.314 295.781 89.554 288.021 89.554 278.447 L89.554 241.7 C89.554 232.126 97.316 224.366 106.888 224.366 L125.262 224.366 C221.65 224.366 300.069 302.784 300.069 399.173 L300.069 417.545Z M411.013 434.88 L374.266 434.88 C364.692 434.88 356.931 427.12 356.931 417.545 L356.931 399.171 C356.931 271.428 253.005 167.502 125.262 167.502 L106.888 167.502 C97.314 167.502 89.554 159.742 89.554 150.168 L89.554 113.421 C89.554 103.847 97.316 96.087 106.888 96.087 L125.262 96.087 C206.22 96.087 282.331 127.613 339.575 184.859 C396.819 242.105 428.347 318.216 428.347 399.172 L428.347 417.545 L428.348 417.545 C428.349 427.119 420.587 434.88 411.013 434.88Z" style="fill:#008dc9"/></svg>
